<?xml version="1.0" encoding="utf-8"?>
<!-- Generator: Adobe Illustrator 27.1.1, SVG Export Plug-In . SVG Version: 6.00 Build 0)  -->
<svg version="1.1" id="Layer_1" xmlns="http://www.w3.org/2000/svg" xmlns:xlink="http://www.w3.org/1999/xlink" x="0px" y="0px"
	 viewBox="0 0 576 512" style="enable-background:new 0 0 576 512;" xml:space="preserve">
<style type="text/css">
	.st0{fill:#E0E0E0;}
</style>
<path class="st0" d="M142.4,21.9c5.6,16.8-3.5,34.9-20.2,40.5L96,71.1V192c0,53,43,96,96,96s96-43,96-96V71.1l-26.1-8.7
	c-16.8-5.6-25.8-23.7-20.2-40.5s23.7-25.8,40.5-20.2l26.1,8.7c26.1,8.7,43.7,33.1,43.7,60.7V192c0,77.2-54.6,141.6-127.3,156.7
	C231,404.6,278.4,448,336,448c61.9,0,112-50.1,112-112v-70.7c-28.3-12.3-48-40.5-48-73.3c0-44.2,35.8-80,80-80s80,35.8,80,80
	c0,32.8-19.7,61-48,73.3V336c0,97.2-78.8,176-176,176s-168.9-71.9-175.5-163.1C87.2,334.2,32,269.6,32,192V71.1
	c0-27.5,17.6-52,43.8-60.7l26.1-8.7C118.7-3.9,136.8,5.2,142.4,21.9z M480,224c17.7,0,32-14.3,32-32s-14.3-32-32-32s-32,14.3-32,32
	S462.3,224,480,224z"/>
</svg>
