<?xml version="1.0" encoding="UTF-8"?><svg id="Layer_1" xmlns="http://www.w3.org/2000/svg" viewBox="0 0 640 512"><path d="M69.3,36l48,32c11,7.4,14,22.3,6.7,33.3s-22.3,14-33.3,6.7l-48-32c-11-7.4-14-22.3-6.7-33.3s22.3-14,33.3-6.7Zm528,40l-48,32c-11,7.4-25.9,4.4-33.3-6.7s-4.4-25.9,6.7-33.3l48-32c11-7.4,25.9-4.4,33.3,6.7,7.4,11.1,4.4,25.9-6.7,33.3ZM24,192H88c13.3,0,24,10.7,24,24s-10.7,24-24,24H24c-13.3,0-24-10.7-24-24s10.7-24,24-24Zm528,0h64c13.3,0,24,10.7,24,24s-10.7,24-24,24h-64c-13.3,0-24-10.7-24-24s10.7-24,24-24ZM144,352l25-199.9c4-32,31.2-56.1,63.5-56.1h175c32.3,0,59.5,24,63.5,56.1l25,199.9H234.1l21.8-174c1.1-8.8-5.1-16.8-13.9-17.9s-16.8,5.1-17.9,13.9l-22.2,178h-57.9Zm-48,64c0-17.7,14.3-32,32-32h384c17.7,0,32,14.3,32,32v32c0,17.7-14.3,32-32,32H128c-17.7,0-32-14.3-32-32v-32Z" fill="#003df6"/></svg>