<?xml version="1.0" encoding="UTF-8"?><svg id="Layer_1" xmlns="http://www.w3.org/2000/svg" viewBox="0 0 448 512"><path d="M304,144c0,44.2-35.8,80-80,80s-80-35.8-80-80v-16c0-5.5,.6-10.8,1.6-16h30.4c29.8,0,55.9-16.3,69.6-40.5,11.7,14.9,29.9,24.5,50.4,24.5h1.3c4.3,9.8,6.7,20.6,6.7,32v16ZM224,0C153.3,0,96,57.3,96,128v11c0,33.9-13.5,66.5-37.5,90.5l-3.9,3.9c-4.2,4.2-6.6,10-6.6,16,0,12.5,10.1,22.6,22.6,22.6H377.4c12.5,0,22.6-10.1,22.6-22.6,0-6-2.4-11.8-6.6-16l-3.9-3.9c-24-24-37.5-56.6-37.5-90.5v-11C352,57.3,294.7,0,224,0Zm41.1,512h152.2c17,0,30.7-13.8,30.7-30.7,0-80.6-59.1-147.4-136.3-159.4l-39.5,161.2-33.3-123.9,18.6-31c6.4-10.7-1.3-24.2-13.7-24.2h-39.5c-12.4,0-20.1,13.6-13.7,24.2l18.6,31-33.4,123.9-39.5-161.2C59.1,333.9,0,400.7,0,481.3c0,17,13.8,30.7,30.7,30.7h234.4Z" fill="#003df6"/></svg>