<?xml version="1.0" encoding="utf-8"?>
<!-- Generator: Adobe Illustrator 27.1.1, SVG Export Plug-In . SVG Version: 6.00 Build 0)  -->
<svg version="1.1" id="Layer_1" xmlns="http://www.w3.org/2000/svg" xmlns:xlink="http://www.w3.org/1999/xlink" x="0px" y="0px"
	 viewBox="0 0 512 512" style="enable-background:new 0 0 512 512;" xml:space="preserve">
<style type="text/css">
	.st0{fill:#E0E0E0;}
</style>
<path class="st0" d="M168,32c0-17.7,14.3-32,32-32h16c17.7,0,32,14.3,32,32h8c17.7,0,32,14.3,32,32v224c0,17.7-14.3,32-32,32h-8
	c0,17.7-14.3,32-32,32h-16c-17.7,0-32-14.3-32-32h-8c-17.7,0-32-14.3-32-32V64c0-17.7,14.3-32,32-32H168z M32,448h288
	c70.7,0,128-57.3,128-128s-57.3-128-128-128v-64c106,0,192,86,192,192c0,49.2-18.5,94-48.9,128H480c17.7,0,32,14.3,32,32
	s-14.3,32-32,32H32c-17.7,0-32-14.3-32-32S14.3,448,32,448z M112,384h192c8.8,0,16,7.2,16,16s-7.2,16-16,16H112c-8.8,0-16-7.2-16-16
	S103.2,384,112,384z"/>
</svg>
