<?xml version="1.0" encoding="utf-8"?>
<!-- Generator: Adobe Illustrator 27.1.1, SVG Export Plug-In . SVG Version: 6.00 Build 0)  -->
<svg version="1.1" id="Layer_1" xmlns="http://www.w3.org/2000/svg" xmlns:xlink="http://www.w3.org/1999/xlink" x="0px" y="0px"
	 viewBox="0 0 512 512" style="enable-background:new 0 0 512 512;" xml:space="preserve">
<style type="text/css">
	.st0{fill:#E0E0E0;}
</style>
<path class="st0" d="M470.7,9.4c3,3.1,5.3,6.6,6.9,10.3s2.4,7.8,2.4,12.2V32l0,0v96c0,17.7-14.3,32-32,32s-32-14.3-32-32v-18.7
	L310.6,214.6c-11.8,11.8-30.8,12.6-43.5,1.7L176,138.1l-91.2,78.2c-13.4,11.5-33.6,9.9-45.1-3.5s-9.9-33.6,3.5-45.1l112-96
	c12-10.3,29.7-10.3,41.7,0l89.5,76.7L370.7,64H352c-17.7,0-32-14.3-32-32s14.3-32,32-32h96c8.8,0,16.8,3.6,22.6,9.3
	C470.6,9.3,470.7,9.4,470.7,9.4z M0,304c0-26.5,21.5-48,48-48h416c26.5,0,48,21.5,48,48v160c0,26.5-21.5,48-48,48H48
	c-26.5,0-48-21.5-48-48V304z M48,416v48h48C96,437.5,74.5,416,48,416z M96,304H48v48C74.5,352,96,330.5,96,304z M464,416
	c-26.5,0-48,21.5-48,48h48V416z M416,304c0,26.5,21.5,48,48,48v-48H416z M320,384c0-35.3-28.7-64-64-64s-64,28.7-64,64
	s28.7,64,64,64S320,419.3,320,384z"/>
</svg>
