<?xml version="1.0" encoding="UTF-8"?><svg id="Layer_1" xmlns="http://www.w3.org/2000/svg" viewBox="0 0 512 512"><path d="M243.4,2.6L19.4,98.6C5.4,104.6-2.4,119.6,.7,134.4c3.1,14.8,16.1,25.6,31.3,25.6v8c0,13.3,10.7,24,24,24H456c13.3,0,24-10.7,24-24v-8c15.2,0,28.3-10.7,31.3-25.6s-4.8-29.9-18.7-35.8L268.6,2.6c-8.1-3.4-17.2-3.4-25.2,0h0Zm-115.4,221.4H64v196.3c-.6,.3-1.2,.7-1.8,1.1l-48,32c-11.7,7.8-17,22.4-12.9,35.9s16.6,22.7,30.7,22.7H480c14.1,0,26.5-9.2,30.6-22.7s-1.1-28.1-12.9-35.9l-48-32c-.6-.4-1.2-.7-1.8-1.1V224h-63.9v192h-40V224h-64v192h-48V224h-64v192h-40V224Zm128-96c-17.7,0-32-14.3-32-32s14.3-32,32-32,32,14.3,32,32-14.3,32-32,32Z" fill="#fff"/></svg>