<?xml version="1.0" encoding="utf-8"?>
<!-- Generator: Adobe Illustrator 27.1.1, SVG Export Plug-In . SVG Version: 6.00 Build 0)  -->
<svg version="1.1" id="Layer_1" xmlns="http://www.w3.org/2000/svg" xmlns:xlink="http://www.w3.org/1999/xlink" x="0px" y="0px"
	 viewBox="0 0 512 512" style="enable-background:new 0 0 512 512;" xml:space="preserve">
<style type="text/css">
	.st0{fill:#E0E0E0;}
</style>
<path class="st0" d="M256,0c124.8,0,208,35.2,208,80v32h16c17.7,0,32,14.3,32,32v64c0,17.7-14.3,32-32,32h-16v28.2
	c9.8,8.8,16,21.6,16,35.8v96c0,20.9-13.4,38.7-32,45.3V480c0,17.7-14.3,32-32,32h-32c-17.7,0-32-14.3-32-32v-32H160v32
	c0,17.7-14.3,32-32,32H96c-17.7,0-32-14.3-32-32v-34.7c-18.6-6.6-32-24.4-32-45.3v-96c0-14.2,6.2-27,16-35.8V240H32
	c-17.7,0-32-14.3-32-32v-64c0-17.7,14.3-32,32-32h16V80C48,35.2,131.2,0,256,0z M112,160v64c0,17.7,14.3,32,32,32h96V128h-96
	C126.3,128,112,142.3,112,160z M272,256h96c17.7,0,32-14.3,32-32v-64c0-17.7-14.3-32-32-32h-96V256z M112,384c17.7,0,32-14.3,32-32
	s-14.3-32-32-32s-32,14.3-32,32S94.3,384,112,384z M400,384c17.7,0,32-14.3,32-32s-14.3-32-32-32s-32,14.3-32,32S382.3,384,400,384z
	 M352,80c0-8.8-7.2-16-16-16H176c-8.8,0-16,7.2-16,16s7.2,16,16,16h160C344.8,96,352,88.8,352,80z"/>
</svg>
