<?xml version="1.0" encoding="utf-8"?>
<!-- Generator: Adobe Illustrator 27.1.1, SVG Export Plug-In . SVG Version: 6.00 Build 0)  -->
<svg version="1.1" id="Layer_1" xmlns="http://www.w3.org/2000/svg" xmlns:xlink="http://www.w3.org/1999/xlink" x="0px" y="0px"
	 viewBox="0 0 640 512" style="enable-background:new 0 0 640 512;" xml:space="preserve">
<style type="text/css">
	.st0{fill:#E0E0E0;}
</style>
<path class="st0" d="M320,256c-70.7,0-128-57.3-128-128S249.3,0,320,0s128,57.3,128,128S390.7,256,320,256z M40,64
	c22.1,0,40,17.9,40,40v160.2c0,17,6.7,33.3,18.7,45.3l51.1,51.1c8.3,8.3,21.3,9.6,31,3.1c12.9-8.6,14.7-26.9,3.7-37.8l-15.2-15.2
	l-32-32c-12.5-12.5-12.5-32.8,0-45.3s32.8-12.5,45.3,0l32,32l15.2,15.2l0,0l25.3,25.3c21,21,32.8,49.5,32.8,79.2V464
	c0,26.5-21.5,48-48,48h-66.6c-17,0-33.3-6.7-45.3-18.7l-99.9-99.9C10.1,375.4,0,351,0,325.5V104C0,81.9,17.9,64,40,64z M600,64
	c22.1,0,40,17.9,40,40v221.5c0,25.5-10.1,49.9-28.1,67.9L512,493.3c-12,12-28.3,18.7-45.3,18.7H400c-26.5,0-48-21.5-48-48v-78.9
	c0-29.7,11.8-58.2,32.8-79.2l25.3-25.3l0,0l15.2-15.2l32-32c12.5-12.5,32.8-12.5,45.3,0s12.5,32.8,0,45.3l-32,32l-15.2,15.2
	c-11,11-9.2,29.2,3.7,37.8c9.7,6.5,22.7,5.2,31-3.1l51.1-51.1c12-12,18.7-28.3,18.7-45.3V104c0-22.1,17.9-40,40-40H600L600,64z"/>
</svg>
