<?xml version="1.0" encoding="utf-8"?>
<!-- Generator: Adobe Illustrator 27.1.1, SVG Export Plug-In . SVG Version: 6.00 Build 0)  -->
<svg version="1.1" id="Layer_1" xmlns="http://www.w3.org/2000/svg" xmlns:xlink="http://www.w3.org/1999/xlink" x="0px" y="0px"
	 viewBox="0 0 640 512" style="enable-background:new 0 0 640 512;" xml:space="preserve">
<style type="text/css">
	.st0{fill:#E0E0E0;}
</style>
<path class="st0" d="M69.3,36l48,32c11,7.4,14,22.3,6.7,33.3s-22.3,14-33.3,6.7l-48-32c-11-7.4-14-22.3-6.7-33.3S58.3,28.7,69.3,36z
	 M597.3,76l-48,32c-11,7.4-25.9,4.4-33.3-6.7s-4.4-25.9,6.7-33.3l48-32c11-7.4,25.9-4.4,33.3,6.7C611.4,53.8,608.4,68.6,597.3,76z
	 M24,192h64c13.3,0,24,10.7,24,24s-10.7,24-24,24H24c-13.3,0-24-10.7-24-24S10.7,192,24,192z M552,192h64c13.3,0,24,10.7,24,24
	s-10.7,24-24,24h-64c-13.3,0-24-10.7-24-24S538.7,192,552,192z M144,352l25-199.9c4-32,31.2-56.1,63.5-56.1h175
	c32.3,0,59.5,24,63.5,56.1L496,352H234.1l21.8-174c1.1-8.8-5.1-16.8-13.9-17.9s-16.8,5.1-17.9,13.9l-22.2,178H144L144,352z M96,416
	c0-17.7,14.3-32,32-32h384c17.7,0,32,14.3,32,32v32c0,17.7-14.3,32-32,32H128c-17.7,0-32-14.3-32-32V416z"/>
</svg>
