<?xml version="1.0" encoding="UTF-8"?><svg id="Layer_1" xmlns="http://www.w3.org/2000/svg" viewBox="0 0 640 512"><path d="M352,0h256C625.7,0,640,14.3,640,32V480c0,17.7-14.3,32-32,32H352c-17.7,0-32-14.3-32-32V32C320,14.3,334.3,0,352,0Zm128,200c-13.3,0-24,10.7-24,24v64c0,13.3,10.7,24,24,24s24-10.7,24-24v-64c0-13.3-10.7-24-24-24Zm24,184c0-13.3-10.7-24-24-24s-24,10.7-24,24v64c0,13.3,10.7,24,24,24s24-10.7,24-24v-64Zm-24-344c-13.3,0-24,10.7-24,24v64c0,13.3,10.7,24,24,24s24-10.7,24-24V64c0-13.3-10.7-24-24-24ZM32,96H288v64h-40v64h40v96c-53,0-96,43-96,96v64c0,17.7-14.3,32-32,32h-32c-17.7,0-32-14.3-32-32v-64c0-53-43-96-96-96v-96H72v-64H32c-17.7,0-32-14.3-32-32s14.3-32,32-32Zm168,64H120v64h80v-64Z" fill="#fff"/></svg>