<?xml version="1.0" encoding="UTF-8"?><svg id="Layer_1" xmlns="http://www.w3.org/2000/svg" viewBox="0 0 640 512"><path d="M70.2,121.4L178.5,5.8C182,2.1,186.9,0,192,0s10,2.1,13.5,5.8l108.3,115.6c4,4.3,6.2,9.9,6.2,15.7,0,12.7-10.3,22.9-22.9,22.9h-25.1l74.6,89.5c3.5,4.2,5.4,9.5,5.4,15,0,13-10.5,23.5-23.5,23.5h-24.5l74.6,89.5c3.5,4.2,5.4,9.5,5.4,15,0,13-10.5,23.5-23.5,23.5H224v64c0,17.7-14.3,32-32,32s-32-14.3-32-32v-64H23.5c-13,0-23.5-10.5-23.5-23.5,0-5.5,1.9-10.8,5.4-15l74.6-89.5h-24.5c-13,0-23.5-10.5-23.5-23.5,0-5.5,1.9-10.8,5.4-15l74.6-89.5h-25.1c-12.6,0-22.9-10.3-22.9-22.9,0-5.8,2.2-11.4,6.2-15.7Zm271.4-16.4L434.5,5.8C438,2.1,442.9,0,448,0s10,2.1,13.5,5.8l108.3,115.6c4,4.3,6.2,9.9,6.2,15.7,0,12.7-10.3,22.9-22.9,22.9h-25.1l74.6,89.5c3.5,4.2,5.4,9.5,5.4,15,0,13-10.5,23.5-23.5,23.5h-24.5l74.6,89.5c3.5,4.2,5.4,9.5,5.4,15,0,13-10.5,23.5-23.5,23.5h-136.5v64c0,17.7-14.3,32-32,32s-32-14.3-32-32v-88h0c-.1-12.8-4.7-25.2-12.9-35l-40.6-48.7c13-10.2,21.4-26,21.4-43.8,0-13-4.6-25.6-12.9-35.5l-40.4-48.5c12.9-10,21.3-25.8,21.3-43.4,0-11.6-3.7-22.8-10.4-32.1h.1Z" fill="#003df6"/></svg>