<?xml version="1.0" encoding="UTF-8"?><svg id="Layer_1" xmlns="http://www.w3.org/2000/svg" viewBox="0 0 512 512"><path d="M470.7,9.4c3,3.1,5.3,6.6,6.9,10.3s2.4,7.8,2.4,12.2v.1h0v96c0,17.7-14.3,32-32,32s-32-14.3-32-32v-18.7l-105.4,105.3c-11.8,11.8-30.8,12.6-43.5,1.7l-91.1-78.2-91.2,78.2c-13.4,11.5-33.6,9.9-45.1-3.5s-9.9-33.6,3.5-45.1l112-96c12-10.3,29.7-10.3,41.7,0l89.5,76.7,84.3-84.4h-18.7c-17.7,0-32-14.3-32-32S334.3,0,352,0h96C456.8,0,464.8,3.6,470.6,9.3c0,0,.1,.1,.1,.1ZM0,304C0,277.5,21.5,256,48,256H464c26.5,0,48,21.5,48,48v160c0,26.5-21.5,48-48,48H48C21.5,512,0,490.5,0,464v-160Zm48,112v48h48c0-26.5-21.5-48-48-48Zm48-112H48v48c26.5,0,48-21.5,48-48Zm368,112c-26.5,0-48,21.5-48,48h48v-48Zm-48-112c0,26.5,21.5,48,48,48v-48h-48Zm-96,80c0-35.3-28.7-64-64-64s-64,28.7-64,64,28.7,64,64,64,64-28.7,64-64Z" fill="#003df6"/></svg>