<?xml version="1.0" encoding="UTF-8"?><svg id="Layer_1" xmlns="http://www.w3.org/2000/svg" viewBox="0 0 640 512"><path d="M144,160c-44.2,0-80-35.8-80-80S99.8,0,144,0s80,35.8,80,80-35.8,80-80,80Zm368,0c-44.2,0-80-35.8-80-80S467.8,0,512,0s80,35.8,80,80-35.8,80-80,80ZM0,298.7c0-58.9,47.8-106.7,106.7-106.7h42.7c15.9,0,31,3.5,44.6,9.7-1.3,7.2-1.9,14.7-1.9,22.3,0,38.2,16.8,72.5,43.3,96H21.3c-11.7,0-21.3-9.6-21.3-21.3Zm405.3,21.3h-.7c26.6-23.5,43.3-57.8,43.3-96,0-7.6-.7-15-1.9-22.3,13.6-6.3,28.7-9.7,44.6-9.7h42.7c58.9,0,106.7,47.8,106.7,106.7,0,11.8-9.6,21.3-21.3,21.3h-213.4Zm10.7-96c0,53-43,96-96,96s-96-43-96-96,43-96,96-96,96,43,96,96ZM128,485.3c0-73.6,59.7-133.3,133.3-133.3h117.4c73.6,0,133.3,59.7,133.3,133.3,0,14.7-11.9,26.7-26.7,26.7H154.7c-14.7,0-26.7-11.9-26.7-26.7Z" fill="#fff"/></svg>