<?xml version="1.0" encoding="utf-8"?>
<!-- Generator: Adobe Illustrator 27.1.1, SVG Export Plug-In . SVG Version: 6.00 Build 0)  -->
<svg version="1.1" id="Layer_1" xmlns="http://www.w3.org/2000/svg" xmlns:xlink="http://www.w3.org/1999/xlink" x="0px" y="0px"
	 viewBox="0 0 640 512" style="enable-background:new 0 0 640 512;" xml:space="preserve">
<style type="text/css">
	.st0{fill:#E0E0E0;}
</style>
<path class="st0" d="M36.8,192h566.4c20.3,0,36.8-16.5,36.8-36.8c0-7.3-2.2-14.4-6.2-20.4L558.2,21.4C549.3,8,534.4,0,518.3,0H121.7
	c-16,0-31,8-39.9,21.4L6.2,134.7c-4,6.1-6.2,13.2-6.2,20.4C0,175.5,16.5,192,36.8,192z M64,224v240c0,26.5,21.5,48,48,48h224
	c26.5,0,48-21.5,48-48V224h-64v160H128V224H64z M512,224v256c0,17.7,14.3,32,32,32s32-14.3,32-32V224H512z"/>
</svg>
