<?xml version="1.0" encoding="utf-8"?>
<!-- Generator: Adobe Illustrator 27.1.1, SVG Export Plug-In . SVG Version: 6.00 Build 0)  -->
<svg version="1.1" id="Layer_1" xmlns="http://www.w3.org/2000/svg" xmlns:xlink="http://www.w3.org/1999/xlink" x="0px" y="0px"
	 viewBox="0 0 640 512" style="enable-background:new 0 0 640 512;" xml:space="preserve">
<style type="text/css">
	.st0{fill:#E0E0E0;}
</style>
<path class="st0" d="M160,128c-35.3,0-64-28.7-64-64s28.7-64,64-64s64,28.7,64,64S195.3,128,160,128z M88,480v-80H70.2
	c-10.9,0-18.6-10.7-15.2-21.1l31.1-93.4l-28.6,37.8c-10.7,14.1-30.8,16.8-44.8,6.2s-16.8-30.7-6.2-44.8L65.4,207
	c22.4-29.6,57.5-47,94.6-47s72.2,17.4,94.6,47l58.9,77.7c10.7,14.1,7.9,34.2-6.2,44.8s-34.2,7.9-44.8-6.2l-28.6-37.8l31.1,93.4
	c3.5,10.4-4.3,21.1-15.2,21.1H232v80c0,17.7-14.3,32-32,32s-32-14.3-32-32v-80h-16v80c0,17.7-14.3,32-32,32S88,497.7,88,480z
	 M480,128c-35.3,0-64-28.7-64-64s28.7-64,64-64s64,28.7,64,64S515.3,128,480,128z M472,384v96c0,17.7-14.3,32-32,32s-32-14.3-32-32
	V300.5L395.1,321c-9.4,15-29.2,19.4-44.1,10s-19.4-29.2-10-44.1l51.7-82.1c17.6-27.9,48.3-44.9,81.2-44.9h12.3
	c33,0,63.7,16.9,81.2,44.9l51.7,82.2c9.4,15,4.9,34.7-10,44.1s-34.7,4.9-44.1-10l-13-20.6V480c0,17.7-14.3,32-32,32s-32-14.3-32-32
	v-96H472L472,384z"/>
</svg>
