<?xml version="1.0" encoding="utf-8"?>
<!-- Generator: Adobe Illustrator 27.1.1, SVG Export Plug-In . SVG Version: 6.00 Build 0)  -->
<svg version="1.1" id="Layer_1" xmlns="http://www.w3.org/2000/svg" xmlns:xlink="http://www.w3.org/1999/xlink" x="0px" y="0px"
	 viewBox="0 0 640 512" style="enable-background:new 0 0 640 512;" xml:space="preserve">
<style type="text/css">
	.st0{fill:#E0E0E0;}
</style>
<path class="st0" d="M368,0c-26.5,0-48,21.5-48,48v105.9l64,58.7V208c0-8.8,7.2-16,16-16h32c8.8,0,16,7.2,16,16v32
	c0,8.8-7.2,16-16,16h-18.8c1.9,6.8,2.8,13.9,2.8,21.1V288h16c8.8,0,16,7.2,16,16v32c0,8.8-7.2,16-16,16h-16v112c0,18-6,34.6-16,48
	h192c26.5,0,48-21.5,48-48V48c0-26.5-21.5-48-48-48H368z M512,208c0-8.8,7.2-16,16-16h32c8.8,0,16,7.2,16,16v32c0,8.8-7.2,16-16,16
	h-32c-8.8,0-16-7.2-16-16V208z M528,288h32c8.8,0,16,7.2,16,16v32c0,8.8-7.2,16-16,16h-32c-8.8,0-16-7.2-16-16v-32
	C512,295.2,519.2,288,528,288z M400,96h32c8.8,0,16,7.2,16,16v32c0,8.8-7.2,16-16,16h-32c-8.8,0-16-7.2-16-16v-32
	C384,103.2,391.2,96,400,96z M512,112c0-8.8,7.2-16,16-16h32c8.8,0,16,7.2,16,16v32c0,8.8-7.2,16-16,16h-32c-8.8,0-16-7.2-16-16V112
	z M0,277.1V464c0,26.5,21.5,48,48,48h288c26.5,0,48-21.5,48-48V277.1c0-13.5-5.6-26.3-15.6-35.4l-144-132
	c-18.4-16.8-46.5-16.8-64.9,0l-144,132C5.6,250.8,0,263.7,0,277.1z M144,296c0-13.3,10.7-24,24-24h48c13.3,0,24,10.7,24,24v48
	c0,13.3-10.7,24-24,24h-48c-13.3,0-24-10.7-24-24V296z"/>
</svg>
