<?xml version="1.0" encoding="utf-8"?>
<!-- Generator: Adobe Illustrator 27.1.1, SVG Export Plug-In . SVG Version: 6.00 Build 0)  -->
<svg version="1.1" id="Layer_1" xmlns="http://www.w3.org/2000/svg" xmlns:xlink="http://www.w3.org/1999/xlink" x="0px" y="0px"
	 viewBox="0 0 640 512" style="enable-background:new 0 0 640 512;" xml:space="preserve">
<style type="text/css">
	.st0{fill:#E0E0E0;}
</style>
<path class="st0" d="M352,0h256c17.7,0,32,14.3,32,32v448c0,17.7-14.3,32-32,32H352c-17.7,0-32-14.3-32-32V32
	C320,14.3,334.3,0,352,0z M480,200c-13.3,0-24,10.7-24,24v64c0,13.3,10.7,24,24,24s24-10.7,24-24v-64C504,210.7,493.3,200,480,200z
	 M504,384c0-13.3-10.7-24-24-24s-24,10.7-24,24v64c0,13.3,10.7,24,24,24s24-10.7,24-24V384z M480,40c-13.3,0-24,10.7-24,24v64
	c0,13.3,10.7,24,24,24s24-10.7,24-24V64C504,50.7,493.3,40,480,40z M32,96h256v64h-40v64h40v96c-53,0-96,43-96,96v64
	c0,17.7-14.3,32-32,32h-32c-17.7,0-32-14.3-32-32v-64c0-53-43-96-96-96v-96h72v-64H32c-17.7,0-32-14.3-32-32S14.3,96,32,96z
	 M200,160h-80v64h80V160z"/>
</svg>
