<?xml version="1.0" encoding="utf-8"?>
<!-- Generator: Adobe Illustrator 27.1.1, SVG Export Plug-In . SVG Version: 6.00 Build 0)  -->
<svg version="1.1" id="Layer_1" xmlns="http://www.w3.org/2000/svg" xmlns:xlink="http://www.w3.org/1999/xlink" x="0px" y="0px"
	 viewBox="0 0 512 512" style="enable-background:new 0 0 512 512;" xml:space="preserve">
<style type="text/css">
	.st0{fill:#E0E0E0;}
</style>
<path class="st0" d="M416,288c-50.1,0-93.6,28.8-114.6,70.8L68.9,126.3l0.6-0.6l60.1-60.1c87.5-87.5,229.3-87.5,316.8,0
	c67.1,67.1,82.7,166.3,46.8,248.3C471.8,297.6,445,288,416,288L416,288z M49.3,151.9l240.8,240.8c-1.4,7.5-2.1,15.3-2.1,23.3
	c0,23.2,6.2,44.9,16.9,63.7c-3,0.2-6.1,0.3-9.2,0.3H293c-33.9,0-66.5-13.5-90.5-37.5l-9.8-9.8c-13.1-13.1-34.6-12.4-46.8,1.7
	L88.2,501c-5.8,6.7-14.2,10.7-23,11c-8.8,0.3-17.5-3.1-23.8-9.4l-32-32c-6.3-6.3-9.7-14.9-9.4-23.7s4.3-17.2,11-23l66.6-57.7
	c14-12.2,14.8-33.7,1.7-46.8l-9.8-9.8C45.5,285.5,32,252.9,32,219v-2.7c0-22.8,6.1-44.9,17.3-64.3L49.3,151.9L49.3,151.9z M416,512
	c-53,0-96-43-96-96s43-96,96-96s96,43,96,96S469,512,416,512z"/>
</svg>
