<?xml version="1.0" encoding="UTF-8"?><svg id="Layer_1" xmlns="http://www.w3.org/2000/svg" viewBox="0 0 512 512"><path d="M168,32C168,14.3,182.3,0,200,0h16C233.7,0,248,14.3,248,32h8c17.7,0,32,14.3,32,32v224c0,17.7-14.3,32-32,32h-8c0,17.7-14.3,32-32,32h-16c-17.7,0-32-14.3-32-32h-8c-17.7,0-32-14.3-32-32V64c0-17.7,14.3-32,32-32h8ZM32,448H320c70.7,0,128-57.3,128-128s-57.3-128-128-128v-64c106,0,192,86,192,192,0,49.2-18.5,94-48.9,128h16.9c17.7,0,32,14.3,32,32s-14.3,32-32,32H32c-17.7,0-32-14.3-32-32s14.3-32,32-32Zm80-64h192c8.8,0,16,7.2,16,16s-7.2,16-16,16H112c-8.8,0-16-7.2-16-16s7.2-16,16-16Z" fill="#003df6"/></svg>