<?xml version="1.0" encoding="UTF-8"?><svg id="Layer_1" xmlns="http://www.w3.org/2000/svg" viewBox="0 0 640 512"><path d="M368,0C341.5,0,320,21.5,320,48v105.9l64,58.7v-4.6c0-8.8,7.2-16,16-16h32c8.8,0,16,7.2,16,16v32c0,8.8-7.2,16-16,16h-18.8c1.9,6.8,2.8,13.9,2.8,21.1v10.9h16c8.8,0,16,7.2,16,16v32c0,8.8-7.2,16-16,16h-16v112c0,18-6,34.6-16,48h192c26.5,0,48-21.5,48-48V48C640,21.5,618.5,0,592,0h-224Zm144,208c0-8.8,7.2-16,16-16h32c8.8,0,16,7.2,16,16v32c0,8.8-7.2,16-16,16h-32c-8.8,0-16-7.2-16-16v-32Zm16,80h32c8.8,0,16,7.2,16,16v32c0,8.8-7.2,16-16,16h-32c-8.8,0-16-7.2-16-16v-32c0-8.8,7.2-16,16-16ZM400,96h32c8.8,0,16,7.2,16,16v32c0,8.8-7.2,16-16,16h-32c-8.8,0-16-7.2-16-16v-32c0-8.8,7.2-16,16-16Zm112,16c0-8.8,7.2-16,16-16h32c8.8,0,16,7.2,16,16v32c0,8.8-7.2,16-16,16h-32c-8.8,0-16-7.2-16-16v-32ZM0,277.1v186.9c0,26.5,21.5,48,48,48H336c26.5,0,48-21.5,48-48v-186.9c0-13.5-5.6-26.3-15.6-35.4L224.4,109.7c-18.4-16.8-46.5-16.8-64.9,0L15.5,241.7c-9.9,9.1-15.5,22-15.5,35.4Zm144,18.9c0-13.3,10.7-24,24-24h48c13.3,0,24,10.7,24,24v48c0,13.3-10.7,24-24,24h-48c-13.3,0-24-10.7-24-24v-48Z" fill="#fff"/></svg>