<?xml version="1.0" encoding="utf-8"?>
<!-- Generator: Adobe Illustrator 27.1.1, SVG Export Plug-In . SVG Version: 6.00 Build 0)  -->
<svg version="1.1" id="Layer_1" xmlns="http://www.w3.org/2000/svg" xmlns:xlink="http://www.w3.org/1999/xlink" x="0px" y="0px"
	 viewBox="0 0 448 512" style="enable-background:new 0 0 448 512;" xml:space="preserve">
<style type="text/css">
	.st0{fill:#E0E0E0;}
</style>
<path class="st0" d="M93.7,32H208v128H0L50.7,58.5C58.9,42.3,75.5,32,93.7,32z M240,32h114.3c18.2,0,34.8,10.3,42.9,26.5L448,160
	H240V32z M0,192h448v224c0,35.3-28.7,64-64,64H64c-35.3,0-64-28.7-64-64V192z M244.1,240c0-11.1-9-20.1-20.1-20.1s-20.1,9-20.1,20.1
	v6c-5.6,1.2-10.9,2.9-15.9,5.1c-15,6.8-27.9,19.4-31.1,37.7c-1.8,10.2-0.8,20,3.4,29c4.2,8.8,10.7,15,17.3,19.5
	c11.6,7.9,26.9,12.5,38.6,16l2.2,0.7c13.9,4.2,23.4,7.4,29.3,11.7c2.5,1.8,3.4,3.2,3.8,4.1c0.3,0.8,0.9,2.6,0.2,6.7
	c-0.6,3.5-2.5,6.4-8,8.8c-6.1,2.6-16,3.9-28.8,1.9c-6-1-16.7-4.6-26.2-7.9l0,0c-2.2-0.8-4.3-1.5-6.3-2.1
	c-10.5-3.5-21.8,2.2-25.3,12.7s2.2,21.8,12.7,25.3c1.2,0.4,2.7,0.9,4.4,1.5c7.9,2.7,20.3,6.9,29.8,9.1v6.2c0,11.1,9,20.1,20.1,20.1
	s20.1-9,20.1-20.1v-5.5c5.4-1,10.5-2.5,15.4-4.6c15.7-6.7,28.4-19.7,31.6-38.7c1.8-10.4,1-20.3-3-29.4c-3.9-9-10.2-15.6-16.9-20.5
	c-12.2-8.8-28.3-13.7-40.4-17.4l-0.8-0.2c-14.2-4.3-23.8-7.3-29.9-11.4c-2.6-1.8-3.4-3-3.6-3.5c-0.2-0.3-0.7-1.6-0.1-5
	c0.3-1.9,1.9-5.2,8.2-8.1c6.4-2.9,16.4-4.5,28.6-2.6c4.3,0.7,17.9,3.3,21.7,4.3c10.7,2.8,21.6-3.5,24.5-14.2s-3.5-21.6-14.2-24.5
	c-4.4-1.2-14.4-3.2-21-4.4V240L244.1,240L244.1,240z"/>
</svg>
