<?xml version="1.0" encoding="UTF-8"?><svg id="Layer_1" xmlns="http://www.w3.org/2000/svg" viewBox="0 0 512 512"><path d="M256,512c141.4,0,256-114.6,256-256S397.4,0,256,0,0,114.6,0,256s114.6,256,256,256Zm20.8-378.4v14.2c9.7,1.2,19.4,3.9,29,6.6,1.9,.5,3.7,1,5.6,1.6,11.5,3.2,18.3,15.1,15.1,26.6s-15.1,18.2-26.6,15.1c-1.5-.4-3.1-.9-4.7-1.3-7-2-14-3.9-21.1-5.3-13.2-2.5-28.5-1.3-40.8,4-11,4.8-20.1,16.4-7.6,24.4,9.8,6.3,21.8,9.5,33.2,12.6,2.4,.6,4.7,1.3,7,1.9,15.6,4.4,35.5,10.1,50.4,20.3,19.4,13.3,28.5,34.9,24.2,58.1-4.1,22.4-19.7,37.1-38.4,44.7-7.8,3.2-16.3,5.2-25.2,6.2v15.2c0,11.9-9.7,21.6-21.6,21.6s-21.6-9.7-21.6-21.6v-17.4c-14.5-3.3-28.7-7.9-42.8-12.5-11.3-3.7-17.5-16-13.7-27.3s16-17.5,27.3-13.7c2.5,.8,5,1.7,7.5,2.5,11.3,3.8,22.9,7.7,34.5,9.6,17,2.5,30.6,1,39.5-2.6,12-4.8,17.7-19.1,5.9-27.1-10.1-6.9-22.6-10.3-34.5-13.5-2.3-.6-4.5-1.2-6.8-1.9-15.1-4.3-34-9.6-48.2-18.7-19.5-12.5-29.4-33.3-25.2-56.4,4-21.8,21-36.3,39-44.1,5.5-2.4,11.4-4.3,17.5-5.7v-16.1c0-11.9,9.7-21.6,21.6-21.6s21.6,9.7,21.6,21.6h-.1Z" fill="#fff"/></svg>