<?xml version="1.0" encoding="UTF-8"?><svg id="Layer_1" xmlns="http://www.w3.org/2000/svg" viewBox="0 0 512 512"><path d="M0,64c0-17.7,14.3-32,32-32H96c17.7,0,32,14.3,32,32V215.4l156.6-84.4c16-8.6,35.4,3,35.4,21.1v63.2l156.6-84.3c16-8.6,35.4,3,35.4,21.1V432c0,26.5-21.5,48-48,48H48c-26.5,0-48-21.5-48-48V64Zm232,248c-8.8,0-16,7.2-16,16v48c0,8.8,7.2,16,16,16h48c8.8,0,16-7.2,16-16v-48c0-8.8-7.2-16-16-16h-48Zm-144,16v48c0,8.8,7.2,16,16,16h48c8.8,0,16-7.2,16-16v-48c0-8.8-7.2-16-16-16h-48c-8.8,0-16,7.2-16,16Zm272-16c-8.8,0-16,7.2-16,16v48c0,8.8,7.2,16,16,16h48c8.8,0,16-7.2,16-16v-48c0-8.8-7.2-16-16-16h-48Z" fill="#003df6"/></svg>