<?xml version="1.0" encoding="utf-8"?>
<!-- Generator: Adobe Illustrator 27.1.1, SVG Export Plug-In . SVG Version: 6.00 Build 0)  -->
<svg version="1.1" id="Layer_1" xmlns="http://www.w3.org/2000/svg" xmlns:xlink="http://www.w3.org/1999/xlink" x="0px" y="0px"
	 viewBox="0 0 512 512" style="enable-background:new 0 0 512 512;" xml:space="preserve">
<style type="text/css">
	.st0{fill:#E0E0E0;}
</style>
<path class="st0" d="M0,64c0-17.7,14.3-32,32-32h64c17.7,0,32,14.3,32,32v151.4L284.6,131c16-8.6,35.4,3,35.4,21.1v63.2L476.6,131
	c16-8.6,35.4,3,35.4,21.1V432c0,26.5-21.5,48-48,48H48c-26.5,0-48-21.5-48-48V64z M232,312c-8.8,0-16,7.2-16,16v48
	c0,8.8,7.2,16,16,16h48c8.8,0,16-7.2,16-16v-48c0-8.8-7.2-16-16-16H232z M88,328v48c0,8.8,7.2,16,16,16h48c8.8,0,16-7.2,16-16v-48
	c0-8.8-7.2-16-16-16h-48C95.2,312,88,319.2,88,328z M360,312c-8.8,0-16,7.2-16,16v48c0,8.8,7.2,16,16,16h48c8.8,0,16-7.2,16-16v-48
	c0-8.8-7.2-16-16-16H360z"/>
</svg>
