<?xml version="1.0" encoding="UTF-8"?><svg id="Layer_1" xmlns="http://www.w3.org/2000/svg" viewBox="0 0 576 512"><path d="M142.4,21.9c5.6,16.8-3.5,34.9-20.2,40.5l-26.2,8.7v120.9c0,53,43,96,96,96s96-43,96-96V71.1l-26.1-8.7c-16.8-5.6-25.8-23.7-20.2-40.5S265.4-3.9,282.2,1.7l26.1,8.7c26.1,8.7,43.7,33.1,43.7,60.7v120.9c0,77.2-54.6,141.6-127.3,156.7,6.3,55.9,53.7,99.3,111.3,99.3,61.9,0,112-50.1,112-112v-70.7c-28.3-12.3-48-40.5-48-73.3,0-44.2,35.8-80,80-80s80,35.8,80,80c0,32.8-19.7,61-48,73.3v70.7c0,97.2-78.8,176-176,176s-168.9-71.9-175.5-163.1c-73.3-14.7-128.5-79.3-128.5-156.9V71.1c0-27.5,17.6-52,43.8-60.7L101.9,1.7c16.8-5.6,34.9,3.5,40.5,20.2ZM480,224c17.7,0,32-14.3,32-32s-14.3-32-32-32-32,14.3-32,32,14.3,32,32,32Z" fill="#003df6"/></svg>