<?xml version="1.0" encoding="utf-8"?>
<!-- Generator: Adobe Illustrator 27.1.1, SVG Export Plug-In . SVG Version: 6.00 Build 0)  -->
<svg version="1.1" id="Layer_1" xmlns="http://www.w3.org/2000/svg" xmlns:xlink="http://www.w3.org/1999/xlink" x="0px" y="0px"
	 viewBox="0 0 448 512" style="enable-background:new 0 0 448 512;" xml:space="preserve">
<style type="text/css">
	.st0{fill:#E0E0E0;}
</style>
<path class="st0" d="M272,48c0-26.5-21.5-48-48-48s-48,21.5-48,48s21.5,48,48,48S272,74.5,272,48z M264,235.3l47.4,57.1
	c11.3,13.6,31.5,15.5,45.1,4.2s15.5-31.5,4.2-45.1L287,162.6c-18.2-22-45.3-34.7-73.9-34.7h-36c-33.7,0-64.9,17.7-82.3,46.6
	l-58.3,97c-9.1,15.1-4.2,34.8,10.9,43.9s34.8,4.2,43.9-10.9l28.7-47.6V480c0,17.7,14.3,32,32,32s32-14.3,32-32V352h16v128
	c0,17.7,14.3,32,32,32s32-14.3,32-32V235.3z M352,376c0-4.4,3.6-8,8-8s8,3.6,8,8v112c0,13.3,10.7,24,24,24s24-10.7,24-24V376
	c0-30.9-25.1-56-56-56s-56,25.1-56,56v8c0,13.3,10.7,24,24,24s24-10.7,24-24V376z"/>
</svg>
