<?xml version="1.0" encoding="utf-8"?>
<!-- Generator: Adobe Illustrator 27.1.1, SVG Export Plug-In . SVG Version: 6.00 Build 0)  -->
<svg version="1.1" id="Layer_1" xmlns="http://www.w3.org/2000/svg" xmlns:xlink="http://www.w3.org/1999/xlink" x="0px" y="0px"
	 viewBox="0 0 512 512" style="enable-background:new 0 0 512 512;" xml:space="preserve">
<style type="text/css">
	.st0{fill:#E0E0E0;}
</style>
<path class="st0" d="M243.4,2.6l-224,96c-14,6-21.8,21-18.7,35.8S16.8,160,32,160v8c0,13.3,10.7,24,24,24h400c13.3,0,24-10.7,24-24
	v-8c15.2,0,28.3-10.7,31.3-25.6s-4.8-29.9-18.7-35.8l-224-96C260.5-0.8,251.4-0.8,243.4,2.6L243.4,2.6L243.4,2.6z M128,224H64v196.3
	c-0.6,0.3-1.2,0.7-1.8,1.1l-48,32c-11.7,7.8-17,22.4-12.9,35.9S17.9,512,32,512h448c14.1,0,26.5-9.2,30.6-22.7s-1.1-28.1-12.9-35.9
	l-48-32c-0.6-0.4-1.2-0.7-1.8-1.1V224H384v192h-40V224h-64v192h-48V224h-64v192h-40L128,224L128,224z M256,128
	c-17.7,0-32-14.3-32-32s14.3-32,32-32s32,14.3,32,32S273.7,128,256,128z"/>
</svg>
