<?xml version="1.0" encoding="utf-8"?>
<!-- Generator: Adobe Illustrator 27.1.1, SVG Export Plug-In . SVG Version: 6.00 Build 0)  -->
<svg version="1.1" id="Layer_1" xmlns="http://www.w3.org/2000/svg" xmlns:xlink="http://www.w3.org/1999/xlink" x="0px" y="0px"
	 viewBox="0 0 448 512" style="enable-background:new 0 0 448 512;" xml:space="preserve">
<style type="text/css">
	.st0{fill:#E0E0E0;}
</style>
<path class="st0" d="M219.3,0.5c3.1-0.6,6.3-0.6,9.4,0l200,40C439.9,42.7,448,52.6,448,64s-8.1,21.3-19.3,23.5L352,102.9V160
	c0,70.7-57.3,128-128,128S96,230.7,96,160v-57.1l-48-9.6v65.1l15.7,78.4c0.9,4.7-0.3,9.6-3.3,13.3S52.8,256,48,256H16
	c-4.8,0-9.3-2.1-12.4-5.9s-4.3-8.6-3.3-13.3L16,158.4V86.6C6.5,83.3,0,74.3,0,64c0-11.4,8.1-21.3,19.3-23.5L219.3,0.5z M129.1,323.2
	l83.2,88.4c6.3,6.7,17,6.7,23.3,0l83.2-88.4c73.7,14.9,129.1,80,129.1,158.1c0,17-13.8,30.7-30.7,30.7H30.7
	C13.8,512,0,498.2,0,481.3C0,403.2,55.5,338.1,129.1,323.2L129.1,323.2L129.1,323.2z"/>
</svg>
