<?xml version="1.0" encoding="utf-8"?>
<!-- Generator: Adobe Illustrator 27.1.1, SVG Export Plug-In . SVG Version: 6.00 Build 0)  -->
<svg version="1.1" id="Layer_1" xmlns="http://www.w3.org/2000/svg" xmlns:xlink="http://www.w3.org/1999/xlink" x="0px" y="0px"
	 viewBox="0 0 640 512" style="enable-background:new 0 0 640 512;" xml:space="preserve">
<style type="text/css">
	.st0{fill:#E0E0E0;}
</style>
<path class="st0" d="M70.2,121.4L178.5,5.8C182,2.1,186.9,0,192,0s10,2.1,13.5,5.8l108.3,115.6c4,4.3,6.2,9.9,6.2,15.7
	c0,12.7-10.3,22.9-22.9,22.9H272l74.6,89.5c3.5,4.2,5.4,9.5,5.4,15c0,13-10.5,23.5-23.5,23.5H304l74.6,89.5c3.5,4.2,5.4,9.5,5.4,15
	c0,13-10.5,23.5-23.5,23.5H224v64c0,17.7-14.3,32-32,32s-32-14.3-32-32v-64H23.5C10.5,416,0,405.5,0,392.5c0-5.5,1.9-10.8,5.4-15
	L80,288H55.5c-13,0-23.5-10.5-23.5-23.5c0-5.5,1.9-10.8,5.4-15L112,160H86.9C74.3,160,64,149.7,64,137.1
	C64,131.3,66.2,125.7,70.2,121.4z M341.6,105l92.9-99.2C438,2.1,442.9,0,448,0s10,2.1,13.5,5.8l108.3,115.6c4,4.3,6.2,9.9,6.2,15.7
	c0,12.7-10.3,22.9-22.9,22.9H528l74.6,89.5c3.5,4.2,5.4,9.5,5.4,15c0,13-10.5,23.5-23.5,23.5H560l74.6,89.5c3.5,4.2,5.4,9.5,5.4,15
	c0,13-10.5,23.5-23.5,23.5H480v64c0,17.7-14.3,32-32,32s-32-14.3-32-32v-88l0,0c-0.1-12.8-4.7-25.2-12.9-35l-40.6-48.7
	c13-10.2,21.4-26,21.4-43.8c0-13-4.6-25.6-12.9-35.5l-40.4-48.5c12.9-10,21.3-25.8,21.3-43.4C351.9,125.5,348.2,114.3,341.6,105
	L341.6,105L341.6,105z"/>
</svg>
