<?xml version="1.0" encoding="UTF-8"?><svg id="Layer_1" xmlns="http://www.w3.org/2000/svg" viewBox="0 0 640 512"><path d="M160,128c-35.3,0-64-28.7-64-64S124.7,0,160,0s64,28.7,64,64-28.7,64-64,64ZM88,480v-80h-17.8c-10.9,0-18.6-10.7-15.2-21.1l31.1-93.4-28.6,37.8c-10.7,14.1-30.8,16.8-44.8,6.2s-16.8-30.7-6.2-44.8l58.9-77.7c22.4-29.6,57.5-47,94.6-47s72.2,17.4,94.6,47l58.9,77.7c10.7,14.1,7.9,34.2-6.2,44.8s-34.2,7.9-44.8-6.2l-28.6-37.8,31.1,93.4c3.5,10.4-4.3,21.1-15.2,21.1h-17.8v80c0,17.7-14.3,32-32,32s-32-14.3-32-32v-80h-16v80c0,17.7-14.3,32-32,32s-32-14.3-32-32ZM480,128c-35.3,0-64-28.7-64-64S444.7,0,480,0s64,28.7,64,64-28.7,64-64,64Zm-8,256v96c0,17.7-14.3,32-32,32s-32-14.3-32-32v-179.5l-12.9,20.5c-9.4,15-29.2,19.4-44.1,10s-19.4-29.2-10-44.1l51.7-82.1c17.6-27.9,48.3-44.9,81.2-44.9h12.3c33,0,63.7,16.9,81.2,44.9l51.7,82.2c9.4,15,4.9,34.7-10,44.1s-34.7,4.9-44.1-10l-13-20.6v179.5c0,17.7-14.3,32-32,32s-32-14.3-32-32v-96h-16Z" fill="#fff"/></svg>