<?xml version="1.0" encoding="UTF-8"?><svg id="Layer_1" xmlns="http://www.w3.org/2000/svg" viewBox="0 0 512 512"><path d="M512,256v2.7c-.4,36.5-33.6,61.3-70.1,61.3h-97.9c-26.5,0-48,21.5-48,48,0,3.4,.4,6.7,1,9.9,2.1,10.2,6.5,20,10.8,29.9,6.1,13.8,12.1,27.5,12.1,42,0,31.8-21.6,60.7-53.4,62-3.5,.1-7,.2-10.6,.2C114.6,512,0,397.4,0,256S114.6,0,256,0,512,114.6,512,256Zm-384,32c0-17.7-14.3-32-32-32s-32,14.3-32,32,14.3,32,32,32,32-14.3,32-32Zm0-96c17.7,0,32-14.3,32-32s-14.3-32-32-32-32,14.3-32,32,14.3,32,32,32Zm160-96c0-17.7-14.3-32-32-32s-32,14.3-32,32,14.3,32,32,32,32-14.3,32-32Zm96,96c17.7,0,32-14.3,32-32s-14.3-32-32-32-32,14.3-32,32,14.3,32,32,32Z" fill="#fff"/></svg>