<?xml version="1.0" encoding="UTF-8"?><svg id="Layer_1" xmlns="http://www.w3.org/2000/svg" viewBox="0 0 448 512"><path d="M272,48C272,21.5,250.5,0,224,0s-48,21.5-48,48,21.5,48,48,48,48-21.5,48-48Zm-8,187.3l47.4,57.1c11.3,13.6,31.5,15.5,45.1,4.2s15.5-31.5,4.2-45.1l-73.7-88.9c-18.2-22-45.3-34.7-73.9-34.7h-36c-33.7,0-64.9,17.7-82.3,46.6l-58.3,97c-9.1,15.1-4.2,34.8,10.9,43.9s34.8,4.2,43.9-10.9l28.7-47.6v223.1c0,17.7,14.3,32,32,32s32-14.3,32-32v-128h16v128c0,17.7,14.3,32,32,32s32-14.3,32-32V235.3Zm88,140.7c0-4.4,3.6-8,8-8s8,3.6,8,8v112c0,13.3,10.7,24,24,24s24-10.7,24-24v-112c0-30.9-25.1-56-56-56s-56,25.1-56,56v8c0,13.3,10.7,24,24,24s24-10.7,24-24v-8Z" fill="#003df6"/></svg>