<?xml version="1.0" encoding="UTF-8"?><svg id="Layer_1" xmlns="http://www.w3.org/2000/svg" viewBox="0 0 576 512"><path d="M543.8,287.6c17,0,32-14,32-32.1,1-9-3-17-11-24l-52.8-46.5V64c0-17.7-14.3-32-32-32h-32c-17.7,0-32,14.3-32,32v36.7L309.5,7C303.5,2,295.5,0,288.5,0s-15,1-22,8L10,231.5C3,238.5,0,246.5,0,255.5,0,273.5,14,287.6,32,287.6h32v69.7c-.1,.9-.1,1.8-.1,2.8v111.9c0,22.1,17.9,40,40,40h16c1.2,0,2.4-.1,3.6-.2,1.5,.1,3,.2,4.5,.2h56c22.1,0,40-17.9,40-40v-88c0-17.7,14.3-32,32-32h64c17.7,0,32,14.3,32,32v88c0,22.1,17.9,40,40,40h56.5c1.4,0,2.8,0,4.2-.1,1.1,.1,2.2,.1,3.3,.1h16c22.1,0,40-17.9,40-40v-16.2c.3-2.6,.5-5.3,.5-8.1l-.7-160.2h32v.1Z" fill="#003df6"/></svg>