<?xml version="1.0" encoding="UTF-8"?><svg id="Layer_1" xmlns="http://www.w3.org/2000/svg" viewBox="0 0 640 512"><path d="M0,64C0,28.7,28.7,0,64,0H352C387.3,0,416,28.7,416,64v192c0,35.3-28.7,64-64,64H202.7l-81.1,60.8c-4.8,3.6-11.3,4.2-16.8,1.5s-8.8-8.2-8.8-14.3v-48h-32C28.7,320,0,291.3,0,256V64ZM256,352h96c53,0,96-43,96-96V128h128c35.3,0,64,28.7,64,64v192c0,35.3-28.7,64-64,64h-32v48c0,6.1-3.4,11.6-8.8,14.3-5.4,2.7-11.9,2.1-16.8-1.5l-81.1-60.8h-117.3c-35.3,0-64-28.7-64-64v-32ZM228,56c0-11-9-20-20-20s-20,9-20,20v14c-7.6,1.7-15.2,4.4-22.2,8.5-13.9,8.3-25.9,22.8-25.8,43.9,.1,20.3,12,33.1,24.7,40.7,11,6.6,24.7,10.8,35.6,14l1.7,.5c12.6,3.8,21.8,6.8,28,10.7,5.1,3.2,5.8,5.4,5.9,8.2,.1,5-1.8,8-5.9,10.5-5,3.1-12.9,5-21.4,4.7-11.1-.4-21.5-3.9-35.1-8.5-2.3-.8-4.7-1.6-7.2-2.4-10.5-3.5-21.8,2.2-25.3,12.6s2.2,21.8,12.6,25.3c1.9,.6,4,1.3,6.1,2.1h0c8.3,2.9,17.9,6.2,28.2,8.4v14.8c0,11,9,20,20,20s20-9,20-20v-13.8c8-1.7,16-4.5,23.2-9,14.3-8.9,25.1-24.1,24.8-45-.3-20.3-11.7-33.4-24.6-41.6-11.5-7.2-25.9-11.6-37.1-15l-.7-.2c-12.8-3.9-21.9-6.7-28.3-10.5-5.2-3.1-5.3-4.9-5.3-6.7,0-3.7,1.4-6.5,6.2-9.3,5.4-3.2,13.6-5.1,21.5-5,9.6,.1,20.2,2.2,31.2,5.2,10.7,2.8,21.6-3.5,24.5-14.2s-3.5-21.6-14.2-24.5c-6.5-1.7-13.7-3.4-21.1-4.7v-13.7h0Z" fill="#fff"/></svg>