<?xml version="1.0" encoding="utf-8"?>
<!-- Generator: Adobe Illustrator 27.1.1, SVG Export Plug-In . SVG Version: 6.00 Build 0)  -->
<svg version="1.1" id="Layer_1" xmlns="http://www.w3.org/2000/svg" xmlns:xlink="http://www.w3.org/1999/xlink" x="0px" y="0px"
	 viewBox="0 0 512 512" style="enable-background:new 0 0 512 512;" xml:space="preserve">
<style type="text/css">
	.st0{fill:#E0E0E0;}
</style>
<path class="st0" d="M184,48h144c4.4,0,8,3.6,8,8v40H176V56C176,51.6,179.6,48,184,48z M128,56v40H64c-35.3,0-64,28.7-64,64v256
	c0,35.3,28.7,64,64,64h384c35.3,0,64-28.7,64-64V160c0-35.3-28.7-64-64-64h-64V56c0-30.9-25.1-56-56-56H184C153.1,0,128,25.1,128,56
	z M297,191l80,80c9.4,9.4,9.4,24.6,0,33.9l-80,80c-9.4,9.4-24.6,9.4-33.9,0s-9.4-24.6,0-33.9l39-39H152c-13.3,0-24-10.7-24-24
	s10.7-24,24-24h150.1l-39-39c-9.4-9.4-9.4-24.6,0-33.9s24.6-9.4,33.9,0V191z"/>
</svg>
